<?xml version="1.0" encoding="UTF-8"?>
<svg id="Layer_1" data-name="Layer 1" xmlns="http://www.w3.org/2000/svg" viewBox="0 0 576 145.91">
  <defs>
    <style>
      .cls-1 {
        fill: #e03838;
      }
    </style>
  </defs>
  <path d="M205.73,8.75h10.29v42.33h28.22v9.1h-38.51V8.75Z"/>
  <path d="M256.04,6.37c3.49,0,6.2,2.57,6.2,5.6,0,3.3-2.7,5.87-6.2,5.87s-6.26-2.57-6.26-5.87c0-3.03,2.7-5.6,6.26-5.6ZM251.16,23.39h9.63v36.79h-9.63V23.39Z"/>
  <path d="M271.27,65.19l8.77-3.03c2.11,4.02,5.74,5.74,11.67,5.74,7.32,0,12.13-3.76,12.13-11.67v-1.72h-.2c-3.16,4.09-8.44,5.47-13.91,5.47-12.86,0-20.24-8.7-20.24-18.73,0-11.08,8.7-18.92,19.98-18.92,6.59,0,11.67,2.64,14.37,6h.13v-4.94h9.49v33.1c0,14.9-10.15,19.26-21.56,19.26-8.11,0-16.88-2.04-20.64-10.55ZM291.64,51.15c7.12,0,12.4-4.55,12.4-10.09s-5.34-9.96-12.4-9.96-12.13,4.42-12.13,9.96,5.14,10.09,12.13,10.09Z"/>
  <path d="M325.2,7.43h9.63v21.36h.2c3.36-4.55,8.57-6.46,13.91-6.46,7.98,0,15.56,4.62,15.56,14.64v23.21h-9.63v-19.12c0-4.88-2.57-9.89-9.23-9.89-6.13,0-10.81,3.03-10.81,10.02v18.99h-9.63V7.43Z"/>
  <path d="M378.94,48.44v-16.68h-8.7v-8.37h8.7v-10.42h9.63v10.42h12.33v8.37h-12.33v13.39c0,3.49,0,7.78,6.07,7.78,2.04,0,4.29-.53,6.26-1.32v8.31c-2.24.99-5.21,1.38-8.18,1.38-13.78,0-13.78-9.03-13.78-12.86Z"/>
  <path d="M413.82,6.37c3.49,0,6.2,2.57,6.2,5.6,0,3.3-2.7,5.87-6.2,5.87s-6.26-2.57-6.26-5.87c0-3.03,2.7-5.6,6.26-5.6ZM408.95,23.39h9.63v36.79h-9.63V23.39Z"/>
  <path d="M430.24,23.39h9.49v5.41h.13c3.3-4.42,8.57-6.46,14.11-6.46,8.04,0,15.56,4.62,15.56,14.64v23.21h-9.63v-19.12c0-4.88-2.57-9.89-9.23-9.89-6.13,0-10.81,3.03-10.81,10.02v18.99h-9.63V23.39Z"/>
  <path d="M479.57,65.19l8.77-3.03c2.11,4.02,5.74,5.74,11.67,5.74,7.32,0,12.13-3.76,12.13-11.67v-1.72h-.2c-3.16,4.09-8.44,5.47-13.91,5.47-12.86,0-20.24-8.7-20.24-18.73,0-11.08,8.7-18.92,19.98-18.92,6.59,0,11.67,2.64,14.37,6h.13v-4.94h9.49v33.1c0,14.9-10.15,19.26-21.56,19.26-8.11,0-16.88-2.04-20.64-10.55ZM499.94,51.15c7.12,0,12.4-4.55,12.4-10.09s-5.34-9.96-12.4-9.96-12.13,4.42-12.13,9.96,5.14,10.09,12.13,10.09Z"/>
  <path d="M205.73,122.37l9.56-3.1c2.44,7.25,8.44,9.43,14.44,9.43s11.47-2.18,11.47-6.33c0-4.42-6.07-5.8-11.14-7.12l-5.61-1.38c-5.87-1.45-16.55-4.88-16.55-14.7,0-9.3,9.56-15.17,20.97-15.17s18.99,5.74,21.17,12l-9.36,3.63c-1.98-4.15-6.13-6.72-12.13-6.72s-9.96,2.31-9.96,5.47c0,4.28,7.19,6.2,11.34,7.25l6.33,1.71c5.93,1.52,15.82,4.09,15.82,13.85s-9.03,16.42-22.22,16.42c-11.34,0-21.03-5.41-24.13-15.23Z"/>
  <path d="M257.95,118.15c0-11.41,9.3-19.52,22.55-19.52s22.55,8.11,22.55,19.52-9.3,19.45-22.55,19.45-22.55-7.98-22.55-19.45ZM280.5,128.77c7.39,0,12.46-4.42,12.46-10.62s-5.08-10.68-12.46-10.68-12.53,4.42-12.53,10.68,5.21,10.62,12.53,10.62Z"/>
  <path d="M311.82,83.73h9.63v52.75h-9.63v-52.75Z"/>
  <path d="M332.59,122.77v-23.08h9.63v19.91c0,5.6,3.56,9.16,8.97,9.16,6.46,0,10.29-4.09,10.29-9.3v-19.78h9.63v25.32c0,5.94.53,8.44,1.45,11.47h-9.69c-.53-1.85-.92-3.43-.86-4.48h-.13c-2.7,3.43-7.12,5.6-13.38,5.6-9.23,0-15.89-4.94-15.89-14.84Z"/>
  <path d="M386.66,124.74v-16.68h-8.7v-8.37h8.7v-10.42h9.63v10.42h12.33v8.37h-12.33v13.39c0,3.49,0,7.78,6.07,7.78,2.04,0,4.29-.53,6.26-1.32v8.31c-2.24.99-5.21,1.38-8.18,1.38-13.78,0-13.78-9.03-13.78-12.86Z"/>
  <path d="M421.54,82.68c3.49,0,6.2,2.57,6.2,5.6,0,3.3-2.7,5.87-6.2,5.87s-6.26-2.57-6.26-5.87c0-3.03,2.7-5.6,6.26-5.6ZM416.66,99.69h9.63v36.79h-9.63v-36.79Z"/>
  <path d="M435.06,118.15c0-11.41,9.3-19.52,22.55-19.52s22.55,8.11,22.55,19.52-9.3,19.45-22.55,19.45-22.55-7.98-22.55-19.45ZM457.61,128.77c7.39,0,12.46-4.42,12.46-10.62s-5.08-10.68-12.46-10.68-12.53,4.42-12.53,10.68,5.21,10.62,12.53,10.62Z"/>
  <path d="M488.93,99.69h9.49v5.41h.13c3.3-4.42,8.57-6.46,14.11-6.46,8.04,0,15.56,4.62,15.56,14.64v23.21h-9.63v-19.12c0-4.88-2.57-9.89-9.23-9.89-6.13,0-10.81,3.03-10.81,10.02v18.99h-9.63v-36.79Z"/>
  <path d="M535.55,127.25l8.97-2.77c2.04,4.09,6.2,5.54,9.89,5.54,2.83,0,6.79-.86,6.79-3.49s-3.82-3.5-6.92-4.29l-4.62-1.12c-5.08-1.25-12.07-4.22-12.07-10.94,0-7.06,7.32-11.54,16.09-11.54s14.64,4.02,16.48,9.3l-8.9,2.77c-1.12-2.37-3.69-4.55-7.98-4.55-3.49,0-6,1.38-6,3.43,0,2.64,4.75,3.82,8.31,4.62l3.63.79c4.22.92,12.26,2.77,12.26,10.68,0,7.25-6.73,11.93-17.01,11.93-9.63,0-16.81-4.15-18.92-10.35Z"/>
  <path d="M75.69,37h3.06v-.02h30.54l-12.45-28.23h-36.18L3.83,137.6h27.75c6.44-13.88,10.41-21.97,14.87-33.7h.19l9.23-21.97.31-.77q.79-1.84,1.57-3.69l5.57-12.39.25-.62c3.98-9.16,7.91-18.42,12.13-27.46Z"/>
  <path class="cls-1" d="M178.84,81.95h-49.72l-12.97-29.42h-26.19c4.53,9.91,9.06,19.87,13.61,29.4h-30.82l-9.23,21.97h48.52c4.46,12.39,9.91,24.12,14.54,33.7h27.09l-14.85-33.68h30.81l9.23-21.97Z"/>
</svg>