<?xml version="1.0" encoding="UTF-8"?>
<svg id="Layer_1" data-name="Layer 1" xmlns="http://www.w3.org/2000/svg" viewBox="0 0 576 430.24">
  <defs>
    <style>
      .cls-1 {
        fill: #e03838;
      }
    </style>
  </defs>
  <path d="M237.38,98.07h9.89v-.06h98.81L305.79,6.67h-117.05L4.88,423.57h89.79c20.85-44.9,33.67-71.09,48.11-109.03h.61l29.85-71.09.99-2.49q2.56-5.96,5.08-11.95l18.02-40.07.82-2.01c12.88-29.63,25.59-59.61,39.24-88.85Z"/>
  <path class="cls-1" d="M571.12,243.53h-160.87l-41.98-95.18h-84.75c14.67,32.08,29.32,64.28,44.03,95.1h-99.73l-29.85,71.09h156.99c14.43,40.09,32.07,78.03,47.04,109.03h87.66l-48.05-108.96h99.67l29.85-71.09Z"/>
</svg>